HIERARCHY
ROOT joint_Root
{
	OFFSET 0.0 0.0 0.0
	CHANNELS 6 Xposition Yposition Zposition Zrotation Xrotation Yrotation 
	JOINT Hips
	{
		OFFSET -17.1583 93.1646 452.98
		CHANNELS 6 Xposition Yposition Zposition Zrotation Xrotation Yrotation 
		JOINT Spine
		{
			OFFSET 15.7357 0.0 0.0
			CHANNELS 6 Xposition Yposition Zposition Zrotation Xrotation Yrotation 
			JOINT Chest
			{
				OFFSET 8.98455 -0.406207 0.0
				CHANNELS 6 Xposition Yposition Zposition Zrotation Xrotation Yrotation 
				JOINT Neck
				{
					OFFSET 16.3773 0.0 0.0
					CHANNELS 6 Xposition Yposition Zposition Zrotation Xrotation Yrotation 
					JOINT Head
					{
						OFFSET 6.45672 0.0 0.0
						CHANNELS 6 Xposition Yposition Zposition Zrotation Xrotation Yrotation 
						End Site
						{
							OFFSET 0.0 0.0 0.0
						}
					}
				}
				JOINT Shoulder_L
				{
					OFFSET 12.9942 -0.242716 4.98039
					CHANNELS 6 Xposition Yposition Zposition Zrotation Xrotation Yrotation 
					JOINT UpperArm_L
					{
						OFFSET 5.34809 0.0 0.0
						CHANNELS 6 Xposition Yposition Zposition Zrotation Xrotation Yrotation 
						JOINT LowerArm_L
						{
							OFFSET 24.3286 1.87007e-05 0.0
							CHANNELS 6 Xposition Yposition Zposition Zrotation Xrotation Yrotation 
							JOINT Hand_L
							{
								OFFSET 22.2916 0.0 0.0
								CHANNELS 6 Xposition Yposition Zposition Zrotation Xrotation Yrotation 
								End Site
								{
									OFFSET 0.0 0.0 0.0
								}
							}
						}
					}
				}
				JOINT Shoulder_R
				{
					OFFSET 12.9945 -0.242716 -4.98039
					CHANNELS 6 Xposition Yposition Zposition Zrotation Xrotation Yrotation 
					JOINT UpperArm_R
					{
						OFFSET -5.34813 0.0 0.0
						CHANNELS 6 Xposition Yposition Zposition Zrotation Xrotation Yrotation 
						JOINT LowerArm_R
						{
							OFFSET -24.3289 0.000322201 0.0
							CHANNELS 6 Xposition Yposition Zposition Zrotation Xrotation Yrotation 
							JOINT Hand_R
							{
								OFFSET -22.2915 -0.000108084 0.0
								CHANNELS 6 Xposition Yposition Zposition Zrotation Xrotation Yrotation 
								End Site
								{
									OFFSET 0.0 0.0 0.0
								}
							}
						}
					}
				}
			}
		}
		JOINT UpperLeg_L
		{
			OFFSET -2.19248 -6.46944 0.0
			CHANNELS 6 Xposition Yposition Zposition Zrotation Xrotation Yrotation 
			JOINT LowerLeg_L
			{
				OFFSET 39.0811 0.0 -1.23785e-05
				CHANNELS 6 Xposition Yposition Zposition Zrotation Xrotation Yrotation 
				JOINT Foot_L
				{
					OFFSET 40.9854 0.0 -1.26872e-05
					CHANNELS 6 Xposition Yposition Zposition Zrotation Xrotation Yrotation 
					JOINT Toes_L
					{
						OFFSET 11.7543 0.0 0.0
						CHANNELS 6 Xposition Yposition Zposition Zrotation Xrotation Yrotation 
						End Site
						{
							OFFSET 0.0 0.0 0.0
						}
					}
				}
			}
		}
		JOINT UpperLeg_R
		{
			OFFSET -2.19251 6.46944 0.0
			CHANNELS 6 Xposition Yposition Zposition Zrotation Xrotation Yrotation 
			JOINT LowerLeg_R
			{
				OFFSET -39.0811 -0.00228153 -0.0401928
				CHANNELS 6 Xposition Yposition Zposition Zrotation Xrotation Yrotation 
				JOINT Foot_R
				{
					OFFSET -40.9854 0.0 0.0
					CHANNELS 6 Xposition Yposition Zposition Zrotation Xrotation Yrotation 
					JOINT Toes_R
					{
						OFFSET -11.7543 0.0 0.0
						CHANNELS 6 Xposition Yposition Zposition Zrotation Xrotation Yrotation 
						End Site
						{
							OFFSET 0.0 0.0 0.0
						}
					}
				}
			}
		}
	}
}
MOTION
Frames:	8
Frame Time:	0.0333333
0.000000 0.000000 0.000000 0.000000 0.000000 -0.000000 -5.820070 91.820000 -0.542644 85.067200 2.509530 4.753620 15.735700 0.000005 -0.000001 83.327300 87.190400 -81.524600 8.984550 -0.406207 -0.000000 -2.169640 -0.808990 3.589740 16.377300 -0.000001 -0.000001 8.386980 -1.485260 -10.433500 6.456720 -0.000001 -0.000000 1.011560 -6.804710 -19.561500 12.994200 -0.242716 4.980390 -92.940400 7.653390 -68.909400 5.348090 -0.000007 -0.000001 -73.921900 6.671670 -2.175210 24.328600 0.000019 0.000005 44.468100 -43.673200 -125.126000 22.291600 -0.000001 0.000005 43.712000 4.855050 10.262900 12.994500 -0.242716 -4.980390 88.399400 4.885520 -71.835400 -5.348130 -0.000001 -0.000004 -72.095200 31.421700 -2.723870 -24.328900 0.000322 -0.000009 1.997340 6.595040 -16.899100 -22.291500 -0.000108 -0.000004 1.323630 5.223160 2.131820 -2.192480 -6.469440 -0.000000 -170.562000 4.678240 -3.341060 39.081100 -0.000007 -0.000012 0.310136 -0.599470 27.355400 40.985400 -0.000006 -0.000013 -1.540510 11.499000 -75.929700 11.754300 -0.000000 0.000003 0.000497 0.158794 -10.136600 -2.192510 6.469440 -0.000001 -169.445000 8.997650 -176.087000 -39.081100 -0.002282 -0.040193 0.130220 -0.478108 14.863800 -40.985400 0.000008 0.000006 7.058240 0.117691 -70.986700 -11.754300 -0.000006 -0.000006 -0.010533 0.275247 -5.389710
0.000000 0.000000 0.000000 0.000000 0.000000 -0.000000 -5.725480 91.834600 -0.528576 85.069700 2.475880 4.654240 15.735700 0.000005 -0.000001 83.146500 87.199100 -81.343300 8.984550 -0.406207 -0.000000 -2.188780 -0.824860 3.590350 16.377300 -0.000001 -0.000001 8.404600 -1.496510 -10.430900 6.456720 -0.000001 -0.000000 0.946660 -6.795900 -19.562900 12.994200 -0.242716 4.980390 -92.931400 7.637700 -68.929600 5.348090 -0.000007 -0.000001 -74.065000 6.144450 -2.212750 24.328600 0.000019 0.000005 44.778500 -43.783400 -124.888000 22.291600 -0.000001 0.000005 43.738200 4.837220 10.607800 12.994500 -0.242716 -4.980390 88.388900 4.915800 -71.829100 -5.348130 -0.000001 -0.000004 -71.987800 31.416200 -2.810900 -24.328900 0.000322 -0.000009 1.998070 6.589530 -16.918200 -22.291500 -0.000108 -0.000004 1.353680 5.223340 2.127170 -2.192480 -6.469440 -0.000000 -170.616000 4.633870 -3.407920 39.081100 -0.000007 -0.000012 0.304857 -0.590508 27.306200 40.985400 -0.000006 -0.000013 -1.534930 11.478900 -75.822400 11.754300 -0.000000 0.000003 0.000695 0.154964 -10.292100 -2.192510 6.469440 -0.000001 -169.514000 9.009910 -176.149000 -39.081100 -0.002282 -0.040193 0.129393 -0.476480 14.819400 -40.985400 0.000008 0.000006 7.000340 0.200801 -70.945300 -11.754300 -0.000006 -0.000006 -0.010044 0.271631 -5.537670
0.000000 0.000000 0.000000 0.000000 0.000000 -0.000000 -5.631660 91.847600 -0.496466 85.091500 2.468340 4.572910 15.735700 0.000005 -0.000001 83.067100 87.206400 -81.275900 8.984550 -0.406207 -0.000000 -2.204340 -0.829995 3.566260 16.377300 -0.000001 -0.000001 8.424260 -1.505200 -10.421700 6.456720 -0.000001 -0.000000 0.931311 -6.809970 -19.565600 12.994200 -0.242716 4.980390 -92.936000 7.658370 -68.950900 5.348090 -0.000007 -0.000001 -74.129200 5.617940 -2.212750 24.328600 0.000019 0.000005 44.236400 -43.533500 -125.275000 22.291600 -0.000001 0.000005 43.483400 4.846610 10.424600 12.994500 -0.242716 -4.980390 88.376300 4.941840 -71.786300 -5.348130 -0.000001 -0.000004 -71.912200 31.266200 -2.855560 -24.328900 0.000322 -0.000009 2.009720 6.625440 -16.924700 -22.291500 -0.000108 -0.000004 1.353080 5.225390 2.074380 -2.192480 -6.469440 -0.000000 -170.709000 4.602800 -3.429660 39.081100 -0.000007 -0.000012 0.305095 -0.592442 27.248100 40.985400 -0.000006 -0.000013 -1.439910 11.440500 -75.844700 11.754300 -0.000000 0.000003 0.000506 0.158624 -10.143500 -2.192510 6.469440 -0.000001 -169.599000 8.952470 -176.195000 -39.081100 -0.002282 -0.040193 0.129269 -0.476239 14.812700 -40.985400 0.000008 0.000006 6.922690 0.210354 -70.976900 -11.754300 -0.000006 -0.000006 -0.010269 0.273301 -5.469320
0.000000 0.000000 0.000000 0.000000 0.000000 -0.000000 -5.516380 91.862100 -0.463123 85.106700 2.399110 4.543030 15.735700 0.000005 -0.000001 83.308000 87.194800 -81.520100 8.984550 -0.406207 -0.000000 -2.178800 -0.808703 3.560140 16.377300 -0.000001 -0.000001 8.415740 -1.525550 -10.408100 6.456720 -0.000001 -0.000000 0.914051 -6.771160 -19.607500 12.994200 -0.242716 4.980390 -92.942500 7.658280 -68.907700 5.348090 -0.000007 -0.000001 -74.150900 5.295410 -2.265980 24.328600 0.000019 0.000005 44.718100 -43.683700 -124.896000 22.291600 -0.000001 0.000005 43.615800 4.815960 11.014600 12.994500 -0.242716 -4.980390 88.372100 4.945910 -71.756100 -5.348130 -0.000001 -0.000004 -71.807700 31.202500 -2.905470 -24.328900 0.000322 -0.000009 2.008290 6.615250 -16.937800 -22.291500 -0.000108 -0.000004 1.405320 5.223850 2.113890 -2.192480 -6.469440 -0.000000 -170.801000 4.517580 -3.387320 39.081100 -0.000007 -0.000012 0.302537 -0.588775 27.196500 40.985400 -0.000006 -0.000013 -1.427460 11.428700 -75.829000 11.754300 -0.000000 0.000003 0.000555 0.157694 -10.181300 -2.192510 6.469440 -0.000001 -169.713000 8.984050 -176.181000 -39.081100 -0.002282 -0.040193 0.128940 -0.475271 14.804400 -40.985400 0.000008 0.000006 6.849690 0.320566 -71.044600 -11.754300 -0.000006 -0.000006 -0.010582 0.275600 -5.375290
0.000000 0.000000 0.000000 0.000000 0.000000 -0.000000 -5.395180 91.878400 -0.420607 85.143000 2.378900 4.451120 15.735700 0.000005 -0.000001 83.322500 87.196600 -81.549800 8.984550 -0.406207 -0.000000 -2.182490 -0.805596 3.529730 16.377300 -0.000001 -0.000001 8.404950 -1.518170 -10.402700 6.456720 -0.000001 -0.000000 0.894271 -6.774830 -19.565000 12.994200 -0.242716 4.980390 -92.948400 7.675590 -68.912300 5.348090 -0.000007 -0.000001 -74.172200 4.799510 -2.352930 24.328600 0.000019 0.000005 44.729200 -43.637300 -124.863000 22.291600 -0.000001 0.000005 43.570900 4.825240 10.837400 12.994500 -0.242716 -4.980390 88.361100 4.977800 -71.750100 -5.348130 -0.000001 -0.000004 -71.656400 31.172100 -2.957460 -24.328900 0.000322 -0.000009 1.991680 6.572100 -16.909200 -22.291500 -0.000108 -0.000004 1.432260 5.224010 2.109880 -2.192480 -6.469440 -0.000000 -170.919000 4.519870 -3.402410 39.081100 -0.000007 -0.000012 0.301091 -0.588193 27.108100 40.985400 -0.000006 -0.000013 -1.359250 11.382200 -75.796200 11.754300 -0.000000 0.000003 0.000488 0.158960 -10.129900 -2.192510 6.469440 -0.000001 -169.827000 8.963870 -176.216000 -39.081100 -0.002282 -0.040193 0.128069 -0.473326 14.764000 -40.985400 0.000008 0.000006 6.771690 0.373374 -71.016100 -11.754300 -0.000006 -0.000006 -0.010446 0.274610 -5.415770
0.000000 0.000000 0.000000 0.000000 0.000000 -0.000000 -5.267800 91.900300 -0.396972 85.165100 2.319590 4.326420 15.735700 0.000005 -0.000001 83.682600 87.209700 -81.915400 8.984550 -0.406207 -0.000000 -2.205150 -0.767587 3.519220 16.377300 -0.000001 -0.000001 8.382050 -1.513480 -10.407100 6.456720 -0.000001 -0.000000 0.888255 -6.810350 -19.519900 12.994200 -0.242716 4.980390 -92.957800 7.707810 -68.931200 5.348090 -0.000007 -0.000001 -74.142200 4.280770 -2.369570 24.328600 0.000019 0.000005 44.617700 -43.479300 -124.890000 22.291600 -0.000001 0.000005 43.482800 4.828220 10.780400 12.994500 -0.242716 -4.980390 88.363400 4.961170 -71.717400 -5.348130 -0.000001 -0.000004 -71.546500 31.138000 -3.003990 -24.328900 0.000322 -0.000009 1.997980 6.598740 -16.895300 -22.291500 -0.000108 -0.000004 1.408150 5.223070 2.134120 -2.192480 -6.469440 -0.000000 -171.027000 4.482450 -3.434470 39.081100 -0.000007 -0.000012 0.296556 -0.581971 27.002700 40.985400 -0.000006 -0.000013 -1.312900 11.300800 -75.752400 11.754300 -0.000000 0.000003 0.000492 0.158878 -10.133200 -2.192510 6.469440 -0.000001 -169.925000 8.856140 -176.276000 -39.081100 -0.002282 -0.040193 0.126161 -0.467972 14.707000 -40.985400 0.000008 0.000006 6.621040 0.371744 -70.983700 -11.754300 -0.000006 -0.000006 -0.009970 0.271078 -5.560270
0.000000 0.000000 0.000000 0.000000 0.000000 -0.000000 -5.131360 91.920100 -0.358541 85.184800 2.301900 4.170290 15.735700 0.000005 -0.000001 83.578100 87.219600 -81.810300 8.984550 -0.406207 -0.000000 -2.225790 -0.775859 3.520250 16.377300 -0.000001 -0.000001 8.357930 -1.513050 -10.362300 6.456720 -0.000001 -0.000000 0.800243 -6.780790 -19.521500 12.994200 -0.242716 4.980390 -92.944100 7.669610 -68.925900 5.348090 -0.000007 -0.000001 -74.215500 3.805840 -2.300720 24.328600 0.000019 0.000005 44.732700 -43.346500 -124.716000 22.291600 -0.000001 0.000005 43.527200 4.821060 10.917600 12.994500 -0.242716 -4.980390 88.362700 4.971830 -71.746800 -5.348130 -0.000001 -0.000004 -71.400100 31.004300 -3.035180 -24.328900 0.000322 -0.000009 2.001020 6.615740 -16.878700 -22.291500 -0.000108 -0.000004 1.459410 5.222290 2.153970 -2.192480 -6.469440 -0.000000 -171.151000 4.504660 -3.521970 39.081100 -0.000007 -0.000012 0.296863 -0.584442 26.928500 40.985400 -0.000006 -0.000013 -1.289190 11.222800 -75.700100 11.754300 -0.000000 0.000003 0.000398 0.160632 -10.062000 -2.192510 6.469440 -0.000001 -170.054000 8.927540 -176.372000 -39.081100 -0.002282 -0.040193 0.124722 -0.464030 14.660400 -40.985400 0.000008 0.000006 6.533280 0.512913 -70.994500 -11.754300 -0.000006 -0.000006 -0.010180 0.272647 -5.496080
0.000000 0.000000 0.000000 0.000000 0.000000 -0.000000 -4.969610 91.944400 -0.329869 85.204400 2.226020 4.057800 15.735700 0.000005 -0.000001 83.804600 87.214300 -82.028800 8.984550 -0.406207 -0.000000 -2.212990 -0.755666 3.536610 16.377300 -0.000001 -0.000001 8.329050 -1.500730 -10.344400 6.456720 -0.000001 -0.000000 0.710531 -6.775870 -19.470800 12.994200 -0.242716 4.980390 -92.953700 7.695560 -68.927400 5.348090 -0.000007 -0.000001 -74.313500 3.054260 -2.250780 24.328600 0.000019 0.000005 44.360200 -42.891800 -124.837000 22.291600 -0.000001 0.000005 43.227900 4.833820 10.673000 12.994500 -0.242716 -4.980390 88.366000 4.968160 -71.767900 -5.348130 -0.000001 -0.000004 -71.254200 30.859300 -3.088530 -24.328900 0.000322 -0.000009 2.023160 6.700010 -16.853400 -22.291500 -0.000108 -0.000004 1.452800 5.221570 2.172720 -2.192480 -6.469440 -0.000000 -171.277000 4.382330 -3.543320 39.081100 -0.000007 -0.000012 0.295375 -0.584054 26.827800 40.985400 -0.000006 -0.000013 -1.195920 11.183300 -75.653900 11.754300 -0.000000 0.000003 0.000421 0.160212 -10.079000 -2.192510 6.469440 -0.000001 -170.205000 8.948330 -176.445000 -39.081100 -0.002282 -0.040193 0.123142 -0.458347 14.649400 -40.985400 0.000008 0.000006 6.370930 0.713561 -71.002300 -11.754300 -0.000006 -0.000006 -0.010125 0.272235 -5.512950
